<?xml version="1.0" standalone="no"?>
<!DOCTYPE svg PUBLIC "-//W3C//DTD SVG 20010904//EN"
 "http://www.w3.org/TR/2001/REC-SVG-20010904/DTD/svg10.dtd">
<svg version="1.0" xmlns="http://www.w3.org/2000/svg"
 width="848.000000pt" height="848.000000pt" viewBox="0 0 848.000000 848.000000"
 preserveAspectRatio="xMidYMid meet">
<metadata>
Created by potrace 1.11, written by Peter Selinger 2001-2013
</metadata>
<g transform="translate(0.000000,848.000000) scale(0.100000,-0.100000)"
fill="#000000" stroke="none">
<path d="M4408 8475 c-1 -1 -21 -5 -43 -8 -256 -37 -508 -246 -604 -502 -48
-127 -62 -317 -33 -451 38 -174 148 -345 302 -465 49 -39 197 -116 233 -122
12 -2 29 -6 37 -10 57 -21 259 -32 327 -17 21 5 50 11 64 13 71 13 232 91 303
147 44 35 145 145 162 176 10 19 22 34 26 34 5 0 8 6 8 14 0 8 6 21 13 28 17
18 63 137 72 185 2 15 9 49 13 75 9 48 8 185 -2 247 -30 186 -138 365 -299
496 -75 61 -200 120 -312 146 -45 10 -258 22 -267 14z"/>
<path d="M1862 6095 l3 -530 558 0 c306 0 557 -2 557 -5 0 -3 23 -4 51 -4 28
1 69 -3 92 -8 23 -5 50 -11 59 -13 9 -2 48 -15 87 -29 396 -143 672 -496 707
-906 3 -30 5 -659 6 -1397 0 -995 3 -1343 12 -1344 6 -1 243 -2 527 -3 l516
-1 -1 98 c-1 53 2 97 6 97 4 0 5 6 3 13 -10 26 -12 103 -3 120 5 9 5 17 1 17
-9 0 -10 257 -1 266 4 3 4 12 2 18 -9 24 -10 161 -2 179 5 9 5 17 1 17 -9 0
-10 257 -1 266 4 3 4 12 2 18 -9 24 -10 161 -2 179 5 9 5 17 1 17 -10 0 -9
413 1 428 3 6 2 13 -3 16 -4 3 -5 23 -2 43 4 21 4 53 0 71 -3 17 -3 32 1 32 4
0 4 15 0 34 -4 19 -4 40 1 47 4 7 4 20 0 28 -4 9 -5 27 -1 41 4 14 4 34 0 45
-4 11 -4 29 0 40 4 11 4 29 0 41 -5 11 -5 27 0 34 4 7 4 24 0 39 -4 14 -4 35
0 46 4 11 4 29 0 41 -5 11 -5 27 0 34 4 7 4 24 0 39 -4 14 -4 35 0 46 4 11 4
29 0 40 -4 11 -4 29 0 40 4 11 4 31 0 45 -4 14 -3 37 1 52 4 15 5 29 2 32 -3
2 -6 49 -8 103 -2 54 -6 114 -9 133 -17 126 -33 203 -70 350 -2 8 -14 42 -26
75 -12 33 -23 65 -24 70 -1 6 -10 27 -19 49 -9 21 -17 41 -17 43 0 3 -25 55
-56 116 -49 98 -153 269 -197 323 -199 246 -374 404 -593 537 -153 93 -364
186 -514 228 -25 7 -47 13 -50 14 -4 1 -74 17 -90 20 -3 1 -18 4 -35 8 -151
34 -276 40 -878 41 l-597 1 2 -530z"/>
<path d="M5050 6620 c-5 -3 -8 -53 -7 -111 0 -58 -2 -110 -6 -116 -4 -5 -4
-13 0 -16 8 -8 8 -291 0 -304 -4 -6 -4 -13 0 -16 8 -8 8 -291 0 -304 -4 -6 -3
-13 0 -17 4 -4 6 -42 5 -86 -1 -54 2 -79 11 -82 7 -2 482 -4 1057 -3 l1045 0
3 530 2 530 -1051 0 c-578 0 -1055 -2 -1059 -5z"/>
<path d="M1334 5025 c-2 -5 -3 -244 -2 -530 l3 -520 1055 0 1055 0 3 528 c1
290 -1 527 -5 528 -5 1 -480 2 -1057 3 -691 1 -1050 -2 -1052 -9z"/>
<path d="M2394 3435 c-2 -5 -5 -341 -8 -745 -3 -627 -6 -785 -16 -785 -2 0 -7
-19 -15 -59 -9 -46 -66 -188 -86 -218 -11 -14 -19 -30 -19 -36 0 -17 -124
-176 -181 -232 -57 -56 -88 -81 -157 -125 -20 -14 -42 -28 -47 -33 -31 -26
-203 -96 -259 -106 -14 -3 -30 -7 -36 -11 -16 -10 -123 -23 -197 -24 l-43 -1
0 -531 0 -531 108 6 c59 3 121 8 137 10 72 11 131 19 145 22 22 4 83 17 95 20
6 1 31 7 56 13 159 36 462 172 619 276 158 105 353 276 449 395 20 25 44 54
54 65 17 19 130 180 152 217 140 233 246 529 280 778 3 19 8 55 12 80 4 25 8
387 8 805 l0 760 -524 0 c-342 0 -525 -3 -527 -10z"/>
</g>
</svg>
